<svg width="25" height="24" viewBox="0 0 25 24" fill="none" xmlns="http://www.w3.org/2000/svg">
<g clip-path="url(#clip0_714_756)">
<path d="M23.7712 14.6952C22.1901 21.0379 15.764 24.8935 9.43037 23.3124C3.08752 21.7313 -0.768116 15.3054 0.813021 8.97193C2.39407 2.62927 8.81088 -1.22637 15.1537 0.35477C21.4873 1.92657 25.3523 8.35244 23.7712 14.6952Z" fill="url(#paint0_linear_714_756)"/>
<path d="M17.926 10.3589C18.1572 8.78732 16.9646 7.9368 15.319 7.37287L15.8552 5.23732L14.5609 4.91375L14.0432 6.99383C13.7012 6.91063 13.3499 6.82743 12.9986 6.75347L13.5163 4.66414L12.222 4.34058L11.6951 6.46688C11.4085 6.40216 11.1311 6.33745 10.863 6.27274V6.26349L9.06953 5.81974L8.72747 7.20646C8.72747 7.20646 9.68893 7.42834 9.67044 7.43758C10.1974 7.56701 10.2898 7.91831 10.2714 8.19565L9.6612 10.627C9.69818 10.6363 9.7444 10.6455 9.79987 10.6733C9.75365 10.664 9.70742 10.6548 9.6612 10.6363L8.81068 14.0384C8.74596 14.1955 8.57956 14.4359 8.21901 14.3434C8.22825 14.3619 7.27604 14.1123 7.27604 14.1123L6.62891 15.6007L8.3207 16.026C8.63503 16.1092 8.9401 16.1832 9.24518 16.2664L8.70898 18.4204L10.0033 18.744L10.5395 16.6084C10.8908 16.7009 11.2421 16.7933 11.5749 16.8765L11.0479 19.0028L12.3422 19.3264L12.8784 17.1723C15.0971 17.5884 16.7612 17.422 17.4546 15.4158C18.0185 13.8072 17.4268 12.8735 16.262 12.2634C17.1217 12.0692 17.7596 11.5053 17.926 10.3589V10.3589ZM14.9585 14.5191C14.5609 16.1277 11.843 15.2587 10.9647 15.0368L11.6766 12.1802C12.5548 12.402 15.3837 12.8365 14.9585 14.5191ZM15.3652 10.3312C14.9954 11.8011 12.7397 11.0523 12.0094 10.8674L12.6565 8.27886C13.3868 8.46375 15.7443 8.80581 15.3652 10.3312Z" fill="white"/>
</g>
<defs>
<linearGradient id="paint0_linear_714_756" x1="12.2854" y1="-0.00543585" x2="12.2854" y2="23.6645" gradientUnits="userSpaceOnUse">
<stop stop-color="#F9AA4B"/>
<stop offset="1" stop-color="#F7931A"/>
</linearGradient>
<clipPath id="clip0_714_756">
<rect width="23.6667" height="23.6667" fill="white" transform="translate(0.458496 0.00012207)"/>
</clipPath>
</defs>
</svg>
