<svg width="19" height="19" viewBox="0 0 19 19" fill="none" xmlns="http://www.w3.org/2000/svg">
<g clip-path="url(#clip0_714_791)">
<rect x="0.979492" y="0.791687" width="17.75" height="17.75" rx="8.875" fill="white"/>
<path d="M9.96515 0.791687L9.85449 1.20648V13.2428L9.96515 13.3646L15.0316 10.0621L9.96515 0.791687Z" fill="#343434"/>
<path d="M9.85433 0.791687L4.67725 10.062L9.85433 13.3646V7.52256V0.791687Z" fill="#8C8C8C"/>
<path d="M9.9174 14.2466L9.85449 14.3254V18.353L9.9174 18.5417L15.0316 11.1459L9.9174 14.2466Z" fill="#3C3C3B"/>
<path d="M9.85433 18.5417V14.2466L4.67725 11.1459L9.85433 18.5417Z" fill="#8C8C8C"/>
<path d="M9.85449 13.3646L15.0316 10.0199L9.85449 7.44794V13.3646Z" fill="#141414"/>
<path d="M4.67725 10.0199L9.85433 13.3646V7.44794L4.67725 10.0199Z" fill="#393939"/>
</g>
<defs>
<clipPath id="clip0_714_791">
<rect x="0.979492" y="0.791687" width="17.75" height="17.75" rx="8.875" fill="white"/>
</clipPath>
</defs>
</svg>
