<svg width="19" height="19" viewBox="0 0 19 19" fill="none" xmlns="http://www.w3.org/2000/svg">
<g clip-path="url(#clip0_714_794)">
<path d="M14.8497 8.07063C14.8497 8.53287 13.1945 8.91967 10.9758 9.0173L10.9773 9.01804C10.6078 9.03802 10.2379 9.04616 9.8679 9.04244C9.29176 9.04244 8.88425 9.02543 8.74078 9.01804C6.51759 8.92041 4.85796 8.53361 4.85796 8.07063C4.85796 7.60765 6.51759 7.22011 8.74078 7.121V8.63271C8.88573 8.64381 9.30212 8.66821 9.87751 8.66821C10.5675 8.66821 10.9129 8.63863 10.9758 8.63345V7.12248C13.1945 7.22085 14.8497 7.60839 14.8497 8.07063ZM18.6882 8.47444L9.9463 16.851C9.92152 16.8747 9.88853 16.8879 9.85422 16.8879C9.81991 16.8879 9.78692 16.8747 9.76214 16.851L1.021 8.47444C1.00049 8.45517 0.986694 8.42984 0.981636 8.40215C0.976578 8.37446 0.980526 8.34589 0.9929 8.32061L4.22932 1.52162C4.24 1.49877 4.25707 1.47949 4.27846 1.4661C4.29984 1.45272 4.32464 1.4458 4.34987 1.44618H15.3608C15.3857 1.44629 15.4101 1.45352 15.4311 1.46702C15.452 1.48051 15.4687 1.49971 15.4791 1.52236L18.7163 8.32061C18.7287 8.34589 18.7326 8.37446 18.7275 8.40215C18.7225 8.42984 18.7087 8.45517 18.6882 8.47444ZM15.3763 8.17565C15.3763 7.57955 13.4889 7.08107 10.978 6.96495V5.61299H14.0739V3.54956H5.64488V5.61299H8.74004V6.96569C6.22397 7.08107 4.33212 7.57955 4.33212 8.17639C4.33212 8.77397 6.22397 9.27097 8.74004 9.38783V13.7233H10.9773V9.38635C13.4874 9.27023 15.3763 8.77249 15.3763 8.17565Z" fill="white"/>
</g>
<defs>
<clipPath id="clip0_714_794">
<rect width="17.75" height="17.75" fill="white" transform="translate(0.979492 0.291687)"/>
</clipPath>
</defs>
</svg>
