<svg width="19" height="19" viewBox="0 0 19 19" fill="none" xmlns="http://www.w3.org/2000/svg">
<g clip-path="url(#clip0_714_797)">
<rect x="0.979492" y="0.791687" width="17.75" height="17.75" rx="8.875" fill="white"/>
<path d="M9.85449 0.791687C14.7563 0.791687 18.7295 4.76491 18.7295 9.66669C18.7295 14.5685 14.7563 18.5417 9.85449 18.5417C4.95272 18.5417 0.979492 14.5685 0.979492 9.66669C0.979492 4.76491 4.95272 0.791687 9.85449 0.791687ZM11.7138 3.87575C11.5785 3.80919 11.4431 3.87575 11.4098 4.01054C11.376 4.04437 11.376 4.07821 11.376 4.14533V4.61681L11.3815 4.6745C11.4105 4.78861 11.4806 4.88799 11.5785 4.95351C14.2154 5.89648 15.5678 8.82523 14.5871 11.4173C14.0801 12.8317 12.9646 13.9084 11.5785 14.4137C11.4431 14.4808 11.376 14.5818 11.376 14.7504V15.2219L11.3788 15.2707C11.384 15.324 11.4063 15.3741 11.4423 15.4138C11.4782 15.4534 11.526 15.4805 11.5785 15.4909C11.6123 15.4909 11.68 15.4909 11.7138 15.4576C12.4746 15.22 13.1809 14.8343 13.792 14.3226C14.4031 13.811 14.9069 13.1835 15.2745 12.4763C15.6421 11.7691 15.8662 10.9962 15.9339 10.202C16.0015 9.40785 15.9114 8.60816 15.6687 7.84898C15.0608 5.92976 13.5731 4.48202 11.7138 3.8763V3.87575ZM8.13052 3.84247C8.09669 3.84247 8.02902 3.84247 7.99518 3.87575C7.23439 4.11334 6.5281 4.49907 5.917 5.01074C5.3059 5.5224 4.80204 6.1499 4.43444 6.8571C4.06685 7.56429 3.84277 8.33722 3.77512 9.13137C3.70747 9.92552 3.79758 10.7252 4.04026 11.4844C4.6482 13.3703 6.10203 14.8181 7.99518 15.4238C8.13052 15.4909 8.26587 15.4238 8.29915 15.289C8.33298 15.2557 8.33298 15.2213 8.33298 15.1542V14.6827L8.32744 14.6384C8.30414 14.5446 8.21705 14.4376 8.13052 14.3799C5.49354 13.4369 4.14121 10.5081 5.1219 7.91609C5.62888 6.50164 6.74436 5.42499 8.13052 4.91967C8.26587 4.85255 8.33298 4.7516 8.33298 4.58298V4.11149L8.33021 4.06268C8.32494 4.00941 8.30268 3.95926 8.26672 3.91961C8.23077 3.87996 8.18302 3.85291 8.13052 3.84247ZM10.0913 5.59306H9.58381L9.53499 5.5975C9.42405 5.61969 9.34307 5.71509 9.31312 5.86264V6.63698L9.1983 6.65473C8.25089 6.82336 7.65737 7.47734 7.65737 8.28662C7.65737 9.39711 8.33298 9.83476 9.75299 10.0034C10.6998 10.1715 11.0038 10.3739 11.0038 10.9125C11.0038 11.4506 10.5307 11.8211 9.88833 11.8211C9.00915 11.8211 8.70518 11.4511 8.60367 10.9458C8.57039 10.8116 8.46833 10.7439 8.36682 10.7439H7.79216L7.74834 10.7478C7.69365 10.7566 7.64401 10.785 7.60862 10.8276C7.57323 10.8702 7.55449 10.9242 7.55587 10.9796V11.0129L7.57417 11.1128C7.73503 11.9026 8.27641 12.4679 9.34751 12.6293V13.4375L9.35194 13.4863C9.37413 13.5961 9.47009 13.6771 9.6182 13.7065H10.1252L10.174 13.702C10.2849 13.6799 10.3659 13.5844 10.3959 13.4375V12.6287L10.5107 12.6065C11.4609 12.4057 12.086 11.7185 12.086 10.8443C12.086 9.66613 11.376 9.26232 9.956 9.09369C8.94148 8.95891 8.73902 8.68988 8.73902 8.2184C8.73902 7.74691 9.07738 7.44405 9.75299 7.44405C10.3615 7.44405 10.6998 7.64596 10.8685 8.15128C10.886 8.20014 10.9182 8.24245 10.9605 8.2725C11.0028 8.30255 11.0534 8.3189 11.1053 8.31935H11.6461L11.69 8.31602C11.7448 8.30729 11.7947 8.27891 11.8302 8.23615C11.8657 8.19339 11.8845 8.13917 11.883 8.08361V8.05033L11.8625 7.95437C11.7792 7.60958 11.5893 7.29984 11.3198 7.0692C11.0503 6.83856 10.715 6.69877 10.3615 6.66971V5.86264L10.357 5.81383C10.3349 5.70344 10.2389 5.62246 10.0908 5.59306H10.0913Z" fill="#0038FF"/>
</g>
<defs>
<clipPath id="clip0_714_797">
<rect x="0.979492" y="0.791687" width="17.75" height="17.75" rx="8.875" fill="white"/>
</clipPath>
</defs>
</svg>
